<svg width="30" height="35" viewBox="0 0 30 35" fill="none" xmlns="http://www.w3.org/2000/svg">
<path d="M22.2815 8C19.1308 8 17.7993 9.51377 15.6051 9.51377C13.3554 9.51377 11.6394 8.01101 8.90912 8.01101C6.23668 8.01101 3.38686 9.65382 1.5771 12.4524C-0.964058 16.3989 -0.532717 23.8316 3.583 30.1637C5.05518 32.4304 7.02122 34.9725 9.59989 35H9.64678C11.8879 35 12.5536 33.5224 15.6379 33.5051H15.6848C18.7229 33.5051 19.3324 34.9913 21.5641 34.9913H21.611C24.1897 34.9638 26.2612 32.1471 27.7334 29.8891C28.793 28.2651 29.1868 27.45 29.9995 25.6129C24.0459 23.3375 23.0895 14.8395 28.9774 11.5814C27.1802 9.3155 24.6546 8.00315 22.2737 8.00315L22.2815 8Z" fill="white"/>
<path d="M21.9353 0C20.1216 0.120998 18.0056 1.25527 16.7662 2.7362C15.6417 4.07831 14.7168 6.06922 15.0795 8H15.2246C17.1562 8 19.1331 6.85757 20.2879 5.39371C21.4003 4.00037 22.2436 2.0258 21.9353 0Z" fill="white"/>
</svg>
